SerifasText-600.ufo
<glyph name="C" format="1">
  <advance width="708"/>
  <unicode hex="0043"/>
  <outline>
    <contour>
      <point x="660" y="94" type="line"/>
      <point x="599" y="23"/>
      <point x="507" y="-18"/>
      <point x="381" y="-18" type="curve" smooth="yes"/>
      <point x="159" y="-18"/>
      <point x="60" y="107"/>
      <point x="60" y="381" type="curve" smooth="yes"/>
      <point x="60" y="650"/>
      <point x="161" y="760"/>
      <point x="400" y="760" type="curve" smooth="yes"/>
      <point x="502" y="760"/>
      <point x="591" y="738"/>
      <point x="644" y="705" type="curve"/>
      <point x="618" y="451" type="line"/>
      <point x="547" y="451" type="line"/>
      <point x="510" y="671" type="line"/>
      <point x="590" y="593" type="line"/>
      <point x="534" y="627"/>
      <point x="471" y="650"/>
      <point x="390" y="650" type="curve" smooth="yes"/>
      <point x="258" y="650"/>
      <point x="192" y="585"/>
      <point x="190" y="428" type="curve" smooth="yes"/>
      <point x="186" y="181"/>
      <point x="235" y="95"/>
      <point x="381" y="95" type="curve" smooth="yes"/>
      <point x="483" y="94"/>
      <point x="542" y="122"/>
      <point x="590" y="175" type="curve"/>
    </contour>
  </outline>
</glyph>
<glyph name="D" format="1">
  <advance width="754"/>
  <unicode hex="0044"/>
  <outline>
    <contour>
      <point x="317" y="-1" type="line" smooth="yes"/>
      <point x="591" y="-2"/>
      <point x="700" y="104"/>
      <point x="700" y="370" type="curve" smooth="yes"/>
      <point x="700" y="638"/>
      <point x="595" y="740"/>
      <point x="327" y="740" type="curve" smooth="yes"/>
      <point x="51" y="740" type="line"/>
      <point x="51" y="640" type="line"/>
      <point x="188" y="640" type="line"/>
      <point x="125" y="676" type="line"/>
      <point x="125" y="81" type="line"/>
      <point x="159" y="108" type="line"/>
      <point x="51" y="80" type="line"/>
      <point x="51" y="0" type="line"/>
    </contour>
    <contour>
      <point x="291" y="641" type="line" smooth="yes"/>
      <point x="502" y="644"/>
      <point x="573" y="586"/>
      <point x="573" y="352" type="curve" smooth="yes"/>
      <point x="573" y="150"/>
      <point x="502" y="100"/>
      <point x="290" y="101" type="curve" smooth="yes"/>
      <point x="208" y="101" type="line"/>
      <point x="241" y="72" type="line"/>
      <point x="241" y="684" type="line"/>
      <point x="219" y="640" type="line"/>
    </contour>
  </outline>
</glyph>
<glyph name="E" format="1">
  <advance width="668"/>
  <unicode hex="0045"/>
  <outline>
    <contour>
      <point x="191" y="318" type="line"/>
      <point x="191" y="429" type="line"/>
      <point x="472" y="408" type="line"/>
      <point x="472" y="331" type="line"/>
    </contour>
    <contour>
      <point x="499" y="67" type="line"/>
      <point x="549" y="235" type="line"/>
      <point x="613" y="235" type="line"/>
      <point x="613" y="0" type="line"/>
      <point x="50" y="0" type="line"/>
      <point x="50" y="79" type="line"/>
      <point x="153" y="107" type="line"/>
      <point x="124" y="69" type="line"/>
      <point x="124" y="668" type="line"/>
      <point x="154" y="638" type="line"/>
      <point x="50" y="638" type="line"/>
      <point x="50" y="740" type="line"/>
      <point x="599" y="740" type="line"/>
      <point x="591" y="516" type="line"/>
      <point x="524" y="516" type="line"/>
      <point x="497" y="676" type="line"/>
      <point x="530" y="644" type="line"/>
      <point x="209" y="644" type="line"/>
      <point x="242" y="681" type="line"/>
      <point x="242" y="71" type="line"/>
      <point x="210" y="97" type="line"/>
      <point x="531" y="97" type="line"/>
    </contour>
  </outline>
</glyph>
<glyph name="F" format="1">
  <advance width="639"/>
  <unicode hex="0046"/>
  <outline>
    <contour>
      <point x="191" y="307" type="line"/>
      <point x="191" y="418" type="line"/>
      <point x="481" y="397" type="line"/>
      <point x="481" y="320" type="line"/>
    </contour>
    <contour>
      <point x="393" y="0" type="line"/>
      <point x="50" y="0" type="line"/>
      <point x="50" y="82" type="line"/>
      <point x="153" y="110" type="line"/>
      <point x="124" y="72" type="line"/>
      <point x="124" y="668" type="line"/>
      <point x="154" y="638" type="line"/>
      <point x="50" y="638" type="line"/>
      <point x="50" y="740" type="line"/>
      <point x="608" y="740" type="line"/>
      <point x="600" y="506" type="line"/>
      <point x="532" y="506" type="line"/>
      <point x="501" y="676" type="line"/>
      <point x="538" y="644" type="line"/>
      <point x="209" y="644" type="line"/>
      <point x="242" y="681" type="line"/>
      <point x="242" y="62" type="line"/>
      <point x="214" y="110" type="line"/>
      <point x="393" y="82" type="line"/>
    </contour>
  </outline>
</glyph>
<glyph name="G" format="1">
  <advance width="758"/>
  <unicode hex="0047"/>
  <outline>
    <contour>
      <point x="563" y="83" type="line"/>
      <point x="563" y="315" type="line"/>
      <point x="592" y="274" type="line"/>
      <point x="395" y="282" type="line"/>
      <point x="395" y="362" type="line"/>
      <point x="678" y="372" type="line"/>
      <point x="678" y="148" type="line"/>
      <point x="639" y="48"/>
      <point x="541" y="-18"/>
      <point x="384" y="-18" type="curve" smooth="yes"/>
      <point x="161" y="-18"/>
      <point x="61" y="107"/>
      <point x="61" y="381" type="curve" smooth="yes"/>
      <point x="61" y="651"/>
      <point x="163" y="760"/>
      <point x="403" y="760" type="curve"/>
      <point x="505" y="760"/>
      <point x="593" y="738"/>
      <point x="646" y="705" type="curve"/>
      <point x="620" y="505" type="line"/>
      <point x="549" y="505" type="line"/>
      <point x="507" y="670" type="line"/>
      <point x="585" y="593" type="line"/>
      <point x="530" y="628"/>
      <point x="473" y="650"/>
      <point x="392" y="650" type="curve" smooth="yes"/>
      <point x="256" y="650"/>
      <point x="194" y="583"/>
      <point x="191" y="427" type="curve" smooth="yes"/>
      <point x="187" y="170"/>
      <point x="244" y="88"/>
      <point x="384" y="88" type="curve" smooth="yes"/>
      <point x="471" y="88"/>
      <point x="532" y="120"/>
      <point x="575" y="168" type="curve"/>
    </contour>
  </outline>
</glyph>
<glyph name="H" format="1">
  <advance width="823"/>
  <unicode hex="0048"/>
  <outline>
    <contour>
      <point x="202" y="323" type="line"/>
      <point x="202" y="416" type="line"/>
      <point x="614" y="416" type="line"/>
      <point x="614" y="323" type="line"/>
    </contour>
    <contour>
      <point x="242" y="682" type="line"/>
      <point x="242" y="73" type="line"/>
      <point x="197" y="102" type="line"/>
      <point x="323" y="102" type="line"/>
      <point x="323" y="0" type="line"/>
      <point x="50" y="0" type="line"/>
      <point x="50" y="80" type="line"/>
      <point x="158" y="109" type="line"/>
      <point x="124" y="81" type="line"/>
      <point x="124" y="674" type="line"/>
      <point x="187" y="638" type="line"/>
      <point x="50" y="638" type="line"/>
      <point x="50" y="740" type="line"/>
      <point x="323" y="740" type="line"/>
      <point x="323" y="660" type="line"/>
      <point x="220" y="631" type="line"/>
    </contour>
    <contour>
      <point x="699" y="677" type="line"/>
      <point x="699" y="69" type="line"/>
      <point x="636" y="102" type="line"/>
      <point x="773" y="102" type="line"/>
      <point x="773" y="0" type="line"/>
      <point x="500" y="0" type="line"/>
      <point x="500" y="80" type="line"/>
      <point x="603" y="109" type="line"/>
      <point x="581" y="81" type="line"/>
      <point x="581" y="670" type="line"/>
      <point x="626" y="638" type="line"/>
      <point x="500" y="638" type="line"/>
      <point x="500" y="740" type="line"/>
      <point x="773" y="740" type="line"/>
      <point x="773" y="660" type="line"/>
      <point x="665" y="631" type="line"/>
    </contour>
  </outline>
</glyph>
<glyph name="I" format="1">
  <advance width="424"/>
  <unicode hex="0049"/>
  <outline>
    <contour>
      <point x="271" y="51" type="line"/>
      <point x="221" y="102" type="line"/>
      <point x="375" y="102" type="line"/>
      <point x="375" y="0" type="line"/>
      <point x="49" y="0" type="line"/>
      <point x="49" y="80" type="line"/>
      <point x="176" y="109" type="line"/>
      <point x="154" y="63" type="line"/>
      <point x="154" y="670" type="line"/>
      <point x="201" y="638" type="line"/>
      <point x="49" y="638" type="line"/>
      <point x="49" y="740" type="line"/>
      <point x="375" y="740" type="line"/>
      <point x="375" y="660" type="line"/>
      <point x="248" y="631" type="line"/>
      <point x="271" y="677" type="line"/>
    </contour>
  </outline>
</glyph>
<glyph name="L" format="1">
  <advance width="658"/>
  <unicode hex="004C"/>
  <outline>
    <contour>
      <point x="207" y="102" type="line"/>
      <point x="550" y="102" type="line"/>
      <point x="485" y="65" type="line"/>
      <point x="539" y="314" type="line"/>
      <point x="609" y="314" type="line"/>
      <point x="609" y="3" type="line"/>
      <point x="51" y="0" type="line"/>
      <point x="51" y="78" type="line"/>
      <point x="159" y="107" type="line"/>
      <point x="125" y="79" type="line"/>
      <point x="125" y="674" type="line"/>
      <point x="188" y="638" type="line"/>
      <point x="51" y="638" type="line"/>
      <point x="51" y="740" type="line"/>
      <point x="410" y="740" type="line"/>
      <point x="412" y="657" type="line"/>
      <point x="221" y="632" type="line"/>
      <point x="243" y="682" type="line"/>
      <point x="243" y="71" type="line"/>
    </contour>
  </outline>
</glyph>
<glyph name="N" format="1">
  <advance width="823"/>
  <unicode hex="004E"/>
  <outline>
    <contour>
      <point x="574" y="-2" type="line"/>
      <point x="206" y="658" type="line"/>
      <point x="234" y="661" type="line"/>
      <point x="234" y="73" type="line"/>
      <point x="199" y="102" type="line"/>
      <point x="319" y="102" type="line"/>
      <point x="319" y="0" type="line"/>
      <point x="50" y="0" type="line"/>
      <point x="50" y="80" type="line"/>
      <point x="158" y="109" type="line"/>
      <point x="124" y="81" type="line"/>
      <point x="124" y="674" type="line"/>
      <point x="185" y="638" type="line"/>
      <point x="50" y="638" type="line"/>
      <point x="50" y="740" type="line"/>
      <point x="298" y="740" type="line"/>
      <point x="641" y="128" type="line"/>
      <point x="617" y="124" type="line"/>
      <point x="617" y="670" type="line"/>
      <point x="670" y="638" type="line"/>
      <point x="534" y="638" type="line"/>
      <point x="534" y="740" type="line"/>
      <point x="803" y="740" type="line"/>
      <point x="803" y="660" type="line"/>
      <point x="683" y="631" type="line"/>
      <point x="717" y="677" type="line"/>
      <point x="717" y="0" type="line"/>
    </contour>
  </outline>
</glyph>
<glyph name="O" format="1">
  <advance width="758"/>
  <unicode hex="004F"/>
  <outline>
    <contour>
      <point x="374" y="-18" type="curve" smooth="yes"/>
      <point x="153" y="-18"/>
      <point x="54" y="105"/>
      <point x="54" y="375" type="curve" smooth="yes"/>
      <point x="54" y="650"/>
      <point x="157" y="759"/>
      <point x="384" y="759" type="curve" smooth="yes"/>
      <point x="606" y="759"/>
      <point x="705" y="634"/>
      <point x="705" y="364" type="curve" smooth="yes"/>
      <point x="705" y="89"/>
      <point x="602" y="-18"/>
    </contour>
    <contour>
      <point x="385" y="651" type="curve" smooth="yes"/>
      <point x="238" y="651"/>
      <point x="185" y="564"/>
      <point x="182" y="415" type="curve" smooth="yes"/>
      <point x="178" y="164"/>
      <point x="235" y="88"/>
      <point x="374" y="88" type="curve" smooth="yes"/>
      <point x="521" y="88"/>
      <point x="574" y="175"/>
      <point x="577" y="324" type="curve" smooth="yes"/>
      <point x="581" y="575"/>
      <point x="524" y="651"/>
    </contour>
  </outline>
</glyph>
<glyph name="P" format="1">
  <advance width="684"/>
  <unicode hex="0050"/>
  <outline>
    <contour>
      <point x="347" y="643" type="curve"/>
      <point x="222" y="643" type="line"/>
      <point x="242" y="682" type="line"/>
      <point x="242" y="73" type="line"/>
      <point x="199" y="102" type="line"/>
      <point x="367" y="102" type="line"/>
      <point x="367" y="0" type="line"/>
      <point x="50" y="0" type="line"/>
      <point x="50" y="80" type="line"/>
      <point x="158" y="109" type="line"/>
      <point x="124" y="81" type="line"/>
      <point x="124" y="674" type="line"/>
      <point x="187" y="638" type="line"/>
      <point x="50" y="638" type="line"/>
      <point x="50" y="740" type="line"/>
      <point x="341" y="740" type="line"/>
      <point x="556" y="740"/>
      <point x="641" y="673"/>
      <point x="641" y="493" type="curve" smooth="yes"/>
      <point x="641" y="303"/>
      <point x="560" y="230"/>
      <point x="313" y="230" type="curve" smooth="yes"/>
      <point x="218" y="230" type="line"/>
      <point x="218" y="328" type="line"/>
      <point x="317" y="328" type="line" smooth="yes"/>
      <point x="483" y="328"/>
      <point x="517" y="376"/>
      <point x="517" y="493" type="curve" smooth="yes"/>
      <point x="517" y="609"/>
      <point x="466" y="643"/>
    </contour>
  </outline>
</glyph>
<glyph name="Q" format="1">
  <advance width="758"/>
  <unicode hex="0051"/>
  <outline>
    <contour>
      <point x="600" y="121" type="line"/>
      <point x="793" y="-70" type="line"/>
      <point x="731" y="-127" type="line"/>
      <point x="425" y="52" type="line"/>
    </contour>
    <component base="O" xOffset="10" yOffset="1"/>
  </outline>
</glyph>
<glyph name="T" format="1">
  <advance width="756"/>
  <unicode hex="0054"/>
  <outline>
    <contour>
      <point x="646" y="639" type="line"/>
      <point x="609" y="669" type="line"/>
      <point x="625" y="445" type="line"/>
      <point x="708" y="445" type="line"/>
      <point x="721" y="740" type="line"/>
      <point x="35" y="740" type="line"/>
      <point x="48" y="445" type="line"/>
      <point x="131" y="445" type="line"/>
      <point x="147" y="669" type="line"/>
      <point x="110" y="639" type="line"/>
    </contour>
    <contour>
      <point x="317" y="677" type="line"/>
      <point x="317" y="68" type="line"/>
      <point x="347" y="112" type="line"/>
      <point x="187" y="77" type="line"/>
      <point x="187" y="1" type="line"/>
      <point x="569" y="1" type="line"/>
      <point x="569" y="77" type="line"/>
      <point x="407" y="112" type="line"/>
      <point x="437" y="68" type="line"/>
      <point x="437" y="677" type="line"/>
    </contour>
  </outline>
</glyph>
<glyph name="U" format="1">
  <advance width="816"/>
  <unicode hex="0055"/>
  <outline>
    <contour>
      <point x="614" y="96" type="line"/>
      <point x="629" y="169" type="line"/>
      <point x="599" y="183" type="line"/>
      <point x="547" y="127"/>
      <point x="470" y="106"/>
      <point x="383" y="106" type="curve"/>
      <point x="250" y="106"/>
      <point x="217" y="146"/>
      <point x="217" y="254" type="curve"/>
      <point x="217" y="667" type="line"/>
      <point x="188" y="629" type="line"/>
      <point x="300" y="660" type="line"/>
      <point x="300" y="740" type="line"/>
      <point x="25" y="740" type="line"/>
      <point x="25" y="638" type="line"/>
      <point x="129" y="638" type="line"/>
      <point x="99" y="668" type="line"/>
      <point x="99" y="229" type="line"/>
      <point x="99" y="86"/>
      <point x="171" y="-18"/>
      <point x="322" y="-18" type="curve" smooth="yes"/>
      <point x="475" y="-18"/>
      <point x="513" y="18"/>
      <point x="539" y="96" type="curve"/>
    </contour>
    <contour>
      <point x="758" y="102" type="line"/>
      <point x="652" y="102" type="line"/>
      <point x="682" y="72" type="line"/>
      <point x="682" y="670" type="line"/>
      <point x="654" y="632" type="line"/>
      <point x="758" y="660" type="line"/>
      <point x="758" y="740" type="line"/>
      <point x="481" y="740" type="line"/>
      <point x="481" y="638" type="line"/>
      <point x="594" y="638" type="line"/>
      <point x="564" y="668" type="line"/>
      <point x="564" y="0" type="line"/>
      <point x="758" y="0" type="line"/>
    </contour>
  </outline>
</glyph>
<glyph name="a" format="1">
  <advance width="578"/>
  <unicode hex="0061"/>
  <outline>
    <contour>
      <point x="146" y="163" type="curve" smooth="yes"/>
      <point x="146" y="226"/>
      <point x="180" y="244"/>
      <point x="262" y="244" type="curve" smooth="yes"/>
      <point x="340" y="244"/>
      <point x="392" y="194"/>
      <point x="392" y="194" type="curve"/>
      <point x="416" y="230" type="line"/>
      <point x="357" y="314"/>
      <point x="298" y="329"/>
      <point x="228" y="329" type="curve" smooth="yes"/>
      <point x="97" y="329"/>
      <point x="38" y="277"/>
      <point x="38" y="154" type="curve" smooth="yes"/>
      <point x="38" y="39"/>
      <point x="95" y="-18"/>
      <point x="205" y="-18" type="curve" smooth="yes"/>
      <point x="308" y="-18"/>
      <point x="345" y="13"/>
      <point x="345" y="103" type="curve"/>
      <point x="320" y="68" type="line"/>
      <point x="422" y="68" type="line"/>
      <point x="407" y="162" type="line"/>
      <point x="382" y="123"/>
      <point x="310" y="79"/>
      <point x="243" y="79" type="curve" smooth="yes"/>
      <point x="179" y="79"/>
      <point x="146" y="105"/>
    </contour>
    <contour>
      <point x="544" y="80" type="line"/>
      <point x="445" y="131" type="line"/>
      <point x="484" y="83" type="line"/>
      <point x="484" y="333" type="line" smooth="yes"/>
      <point x="484" y="488"/>
      <point x="428" y="559"/>
      <point x="281" y="558" type="curve" smooth="yes"/>
      <point x="238" y="558"/>
      <point x="168" y="551"/>
      <point x="62" y="516" type="curve"/>
      <point x="92" y="423" type="line"/>
      <point x="140" y="439"/>
      <point x="196" y="456"/>
      <point x="253" y="456" type="curve" smooth="yes"/>
      <point x="342" y="456"/>
      <point x="376" y="421"/>
      <point x="376" y="305" type="curve" smooth="yes"/>
      <point x="375" y="0" type="line"/>
      <point x="544" y="0" type="line"/>
    </contour>
  </outline>
</glyph>
<glyph name="b" format="1">
  <advance width="620"/>
  <unicode hex="0062"/>
  <outline>
    <contour>
      <point x="82" y="0" type="line"/>
      <point x="82" y="658" type="line"/>
      <point x="149" y="643" type="line"/>
      <point x="5" y="643" type="line"/>
      <point x="5" y="760" type="line"/>
      <point x="194" y="760" type="line"/>
      <point x="194" y="94" type="line"/>
      <point x="181" y="87" type="line"/>
      <point x="159" y="0" type="line"/>
    </contour>
    <contour>
      <point x="459" y="276" type="curve"/>
      <point x="459" y="386"/>
      <point x="417" y="429"/>
      <point x="344" y="429" type="curve" smooth="yes"/>
      <point x="270" y="429"/>
      <point x="234" y="411"/>
      <point x="163" y="372" type="curve"/>
      <point x="163" y="456" type="line"/>
      <point x="304" y="462" type="line"/>
      <point x="228" y="420" type="line"/>
      <point x="228" y="510"/>
      <point x="278" y="554"/>
      <point x="384" y="554" type="curve" smooth="yes"/>
      <point x="488" y="554"/>
      <point x="574" y="513"/>
      <point x="574" y="265" type="curve" smooth="yes"/>
      <point x="574" y="44"/>
      <point x="478" y="-11"/>
      <point x="351" y="-11" type="curve" smooth="yes"/>
      <point x="240" y="-11"/>
      <point x="155" y="70"/>
      <point x="144" y="142" type="curve"/>
      <point x="170" y="175" type="line"/>
      <point x="203" y="113"/>
      <point x="241" y="84"/>
      <point x="325" y="84" type="curve" smooth="yes"/>
      <point x="395" y="84"/>
      <point x="459" y="121"/>
    </contour>
  </outline>
</glyph>
<glyph name="c" format="1">
  <advance width="556"/>
  <unicode hex="0063"/>
  <outline>
    <contour>
      <point x="513" y="62" type="curve"/>
      <point x="465" y="144" type="line"/>
      <point x="427" y="115"/>
      <point x="379" y="81"/>
      <point x="293" y="81" type="curve" smooth="yes"/>
      <point x="205" y="81"/>
      <point x="166" y="150"/>
      <point x="166" y="284" type="curve" smooth="yes"/>
      <point x="166" y="425"/>
      <point x="209" y="458"/>
      <point x="296" y="458" type="curve" smooth="yes"/>
      <point x="347" y="458"/>
      <point x="374" y="448"/>
      <point x="389" y="431" type="curve" smooth="yes"/>
      <point x="405" y="413"/>
      <point x="410" y="370"/>
      <point x="407" y="325" type="curve"/>
      <point x="499" y="325" type="line"/>
      <point x="511" y="520"/>
      <point x="450" y="555"/>
      <point x="288" y="555" type="curve" smooth="yes"/>
      <point x="132" y="555"/>
      <point x="44" y="472"/>
      <point x="44" y="270" type="curve" smooth="yes"/>
      <point x="44" y="66"/>
      <point x="127" y="-11"/>
      <point x="285" y="-11" type="curve" smooth="yes"/>
      <point x="373" y="-11"/>
      <point x="440" y="7"/>
    </contour>
  </outline>
</glyph>
<glyph name="d" format="1">
  <advance width="647"/>
  <unicode hex="0064"/>
  <outline>
    <contour>
      <point x="304" y="760" type="line"/>
      <point x="532" y="760" type="line"/>
      <point x="532" y="79" type="line"/>
      <point x="477" y="110" type="line"/>
      <point x="589" y="80" type="line"/>
      <point x="589" y="0" type="line"/>
      <point x="421" y="0" type="line"/>
      <point x="421" y="679" type="line"/>
      <point x="449" y="640" type="line"/>
      <point x="304" y="679" type="line"/>
    </contour>
    <contour>
      <point x="240" y="-11" type="curve" smooth="yes"/>
      <point x="137" y="-11"/>
      <point x="48" y="28"/>
      <point x="48" y="284" type="curve"/>
      <point x="48" y="507"/>
      <point x="145" y="555"/>
      <point x="270" y="555" type="curve" smooth="yes"/>
      <point x="381" y="555"/>
      <point x="464" y="467"/>
      <point x="475" y="395" type="curve"/>
      <point x="434" y="381" type="line"/>
      <point x="420" y="432"/>
      <point x="357" y="456"/>
      <point x="291" y="456" type="curve" smooth="yes"/>
      <point x="221" y="456"/>
      <point x="163" y="423"/>
      <point x="163" y="312" type="curve" smooth="yes"/>
      <point x="163" y="137"/>
      <point x="200" y="104"/>
      <point x="288" y="104" type="curve" smooth="yes"/>
      <point x="370" y="104"/>
      <point x="445" y="156"/>
      <point x="476" y="213" type="curve"/>
      <point x="456" y="72" type="line"/>
      <point x="326" y="72" type="line"/>
      <point x="400" y="121" type="line"/>
      <point x="400" y="31"/>
      <point x="346" y="-11"/>
    </contour>
  </outline>
</glyph>
<glyph name="e" format="1">
  <advance width="556"/>
  <unicode hex="0065"/>
  <outline>
    <contour>
      <point x="403" y="314" type="curve"/>
      <point x="438" y="318" type="line"/>
      <point x="258" y="318" type="line" smooth="yes"/>
      <point x="209" y="318"/>
      <point x="190" y="319"/>
      <point x="190" y="278" type="curve"/>
      <point x="120" y="278" type="line"/>
      <point x="120" y="238" type="line"/>
      <point x="506" y="238" type="line"/>
      <point x="512" y="381"/>
      <point x="501" y="462"/>
      <point x="454" y="508" type="curve" smooth="yes"/>
      <point x="417" y="543"/>
      <point x="366" y="554"/>
      <point x="282" y="554" type="curve" smooth="yes"/>
      <point x="129" y="554"/>
      <point x="44" y="470"/>
      <point x="44" y="270" type="curve" smooth="yes"/>
      <point x="44" y="69"/>
      <point x="124" y="-11"/>
      <point x="284" y="-11" type="curve" smooth="yes"/>
      <point x="370" y="-11"/>
      <point x="435" y="7"/>
      <point x="506" y="61" type="curve"/>
      <point x="461" y="145" type="line"/>
      <point x="425" y="117"/>
      <point x="377" y="88"/>
      <point x="291" y="88" type="curve" smooth="yes"/>
      <point x="205" y="88"/>
      <point x="162" y="149"/>
      <point x="162" y="280" type="curve" smooth="yes"/>
      <point x="162" y="430"/>
      <point x="207" y="459"/>
      <point x="296" y="459" type="curve" smooth="yes"/>
      <point x="388" y="459"/>
      <point x="409" y="409"/>
    </contour>
  </outline>
</glyph>
<glyph name="h" format="1">
  <advance width="649"/>
  <unicode hex="0068"/>
  <outline>
    <contour>
      <point x="608" y="80" type="line"/>
      <point x="498" y="134" type="line"/>
      <point x="554" y="77" type="line"/>
      <point x="554" y="369" type="line" smooth="yes"/>
      <point x="554" y="509"/>
      <point x="501" y="555"/>
      <point x="390" y="555" type="curve" smooth="yes"/>
      <point x="293" y="555"/>
      <point x="245" y="514"/>
      <point x="239" y="418" type="curve"/>
      <point x="278" y="453" type="line"/>
      <point x="193" y="453" type="line"/>
      <point x="193" y="351" type="line"/>
      <point x="220" y="404"/>
      <point x="286" y="422"/>
      <point x="342" y="422" type="curve" smooth="yes"/>
      <point x="420" y="422"/>
      <point x="446" y="399"/>
      <point x="446" y="362" type="curve" smooth="yes"/>
      <point x="446" y="77" type="line"/>
      <point x="474" y="119" type="line"/>
      <point x="389" y="80" type="line"/>
      <point x="389" y="-1" type="line"/>
      <point x="608" y="-1" type="line"/>
    </contour>
    <contour>
      <point x="268" y="-1" type="line"/>
      <point x="268" y="80" type="line"/>
      <point x="183" y="122" type="line"/>
      <point x="211" y="80" type="line"/>
      <point x="211" y="759" type="line"/>
      <point x="43" y="760" type="line"/>
      <point x="43" y="648" type="line"/>
      <point x="155" y="648" type="line"/>
      <point x="103" y="677" type="line"/>
      <point x="103" y="87" type="line"/>
      <point x="118" y="113" type="line"/>
      <point x="43" y="80" type="line"/>
      <point x="43" y="-1" type="line"/>
    </contour>
  </outline>
</glyph>
<glyph name="i" format="1">
  <advance width="341"/>
  <unicode hex="0069"/>
  <outline>
    <contour>
      <point x="307" y="-1" type="line"/>
      <point x="307" y="80" type="line"/>
      <point x="206" y="115" type="line"/>
      <point x="234" y="80" type="line"/>
      <point x="234" y="539" type="line"/>
      <point x="51" y="539" type="line"/>
      <point x="51" y="427" type="line"/>
      <point x="178" y="427" type="line"/>
      <point x="126" y="456" type="line"/>
      <point x="126" y="87" type="line"/>
      <point x="141" y="106" type="line"/>
      <point x="50" y="80" type="line"/>
      <point x="50" y="-1" type="line"/>
    </contour>
    <contour>
      <point x="160" y="645" type="curve"/>
      <point x="211" y="644"/>
      <point x="240" y="669"/>
      <point x="240" y="728" type="curve" smooth="yes"/>
      <point x="240" y="790"/>
      <point x="211" y="812"/>
      <point x="160" y="812" type="curve"/>
      <point x="107" y="813"/>
      <point x="82" y="788"/>
      <point x="82" y="729" type="curve" smooth="yes"/>
      <point x="82" y="667"/>
      <point x="107" y="645"/>
    </contour>
  </outline>
</glyph>
<glyph name="l" format="1">
  <advance width="331"/>
  <unicode hex="006C"/>
  <outline>
    <contour>
      <point x="302" y="-1" type="line"/>
      <point x="302" y="80" type="line"/>
      <point x="201" y="115" type="line"/>
      <point x="229" y="80" type="line"/>
      <point x="229" y="760" type="line"/>
      <point x="46" y="760" type="line"/>
      <point x="46" y="643" type="line"/>
      <point x="173" y="643" type="line"/>
      <point x="121" y="677" type="line"/>
      <point x="121" y="87" type="line"/>
      <point x="136" y="106" type="line"/>
      <point x="45" y="80" type="line"/>
      <point x="45" y="-1" type="line"/>
    </contour>
  </outline>
</glyph>
<glyph name="m" format="1">
  <advance width="948"/>
  <unicode hex="006D"/>
  <outline>
    <contour>
      <point x="597" y="80" type="line"/>
      <point x="488" y="134" type="line"/>
      <point x="543" y="77" type="line"/>
      <point x="543" y="359" type="line"/>
      <point x="543" y="517"/>
      <point x="496" y="555"/>
      <point x="395" y="555" type="curve" smooth="yes"/>
      <point x="300" y="555"/>
      <point x="255" y="515"/>
      <point x="249" y="419" type="curve"/>
      <point x="265" y="455" type="line"/>
      <point x="187" y="455" type="line"/>
      <point x="187" y="352" type="line"/>
      <point x="214" y="405"/>
      <point x="277" y="422"/>
      <point x="333" y="422" type="curve" smooth="yes"/>
      <point x="411" y="422"/>
      <point x="435" y="399"/>
      <point x="435" y="360" type="curve" smooth="yes"/>
      <point x="435" y="77" type="line"/>
      <point x="463" y="119" type="line"/>
      <point x="378" y="80" type="line"/>
      <point x="378" y="-1" type="line"/>
      <point x="597" y="-1" type="line"/>
    </contour>
    <contour>
      <point x="279" y="-1" type="line"/>
      <point x="279" y="80" type="line"/>
      <point x="194" y="122" type="line"/>
      <point x="222" y="80" type="line"/>
      <point x="222" y="539" type="line"/>
      <point x="54" y="539" type="line"/>
      <point x="54" y="427" type="line"/>
      <point x="166" y="427" type="line"/>
      <point x="114" y="456" type="line"/>
      <point x="114" y="87" type="line"/>
      <point x="129" y="113" type="line"/>
      <point x="54" y="80" type="line"/>
      <point x="54" y="-1" type="line"/>
    </contour>
    <contour>
      <point x="918" y="80" type="line"/>
      <point x="810" y="133" type="line"/>
      <point x="864" y="77" type="line"/>
      <point x="864" y="359" type="line"/>
      <point x="864" y="507"/>
      <point x="815" y="555"/>
      <point x="711" y="555" type="curve" smooth="yes"/>
      <point x="615" y="555"/>
      <point x="571" y="515"/>
      <point x="565" y="419" type="curve"/>
      <point x="586" y="455" type="line"/>
      <point x="506" y="455" type="line"/>
      <point x="504" y="348" type="line"/>
      <point x="531" y="401"/>
      <point x="597" y="422"/>
      <point x="653" y="422" type="curve" smooth="yes"/>
      <point x="731" y="422"/>
      <point x="756" y="399"/>
      <point x="756" y="360" type="curve" smooth="yes"/>
      <point x="756" y="77" type="line"/>
      <point x="784" y="119" type="line"/>
      <point x="699" y="80" type="line"/>
      <point x="699" y="-1" type="line"/>
      <point x="918" y="-1" type="line"/>
    </contour>
  </outline>
</glyph>
<glyph name="n" format="1">
  <advance width="649"/>
  <unicode hex="006E"/>
  <outline>
    <contour>
      <point x="618" y="80" type="line"/>
      <point x="506" y="135" type="line"/>
      <point x="564" y="77" type="line"/>
      <point x="564" y="369" type="line"/>
      <point x="564" y="509"/>
      <point x="511" y="555"/>
      <point x="400" y="555" type="curve" smooth="yes"/>
      <point x="303" y="555"/>
      <point x="255" y="513"/>
      <point x="249" y="417" type="curve"/>
      <point x="284" y="453" type="line"/>
      <point x="204" y="453" type="line"/>
      <point x="204" y="351" type="line"/>
      <point x="231" y="404"/>
      <point x="294" y="422"/>
      <point x="350" y="422" type="curve" smooth="yes"/>
      <point x="428" y="422"/>
      <point x="454" y="400"/>
      <point x="454" y="362" type="curve" smooth="yes"/>
      <point x="454" y="77" type="line"/>
      <point x="482" y="119" type="line"/>
      <point x="397" y="80" type="line"/>
      <point x="397" y="-1" type="line"/>
      <point x="618" y="-1" type="line"/>
    </contour>
    <contour>
      <point x="278" y="-1" type="line"/>
      <point x="278" y="80" type="line"/>
      <point x="193" y="122" type="line"/>
      <point x="221" y="80" type="line"/>
      <point x="221" y="539" type="line"/>
      <point x="51" y="539" type="line"/>
      <point x="51" y="427" type="line"/>
      <point x="163" y="427" type="line"/>
      <point x="111" y="456" type="line"/>
      <point x="111" y="87" type="line"/>
      <point x="126" y="113" type="line"/>
      <point x="51" y="80" type="line"/>
      <point x="51" y="-1" type="line"/>
    </contour>
  </outline>
</glyph>
<glyph name="o" format="1">
  <advance width="596"/>
  <unicode hex="006F"/>
  <outline>
    <contour>
      <point x="298" y="-18" type="curve"/>
      <point x="469" y="-18"/>
      <point x="549" y="60"/>
      <point x="549" y="268" type="curve" smooth="yes"/>
      <point x="549" y="485"/>
      <point x="466" y="558"/>
      <point x="298" y="558" type="curve" smooth="yes"/>
      <point x="128" y="558"/>
      <point x="47" y="481"/>
      <point x="47" y="273" type="curve" smooth="yes"/>
      <point x="47" y="56"/>
      <point x="130" y="-18"/>
    </contour>
    <contour>
      <point x="172" y="319" type="curve" smooth="yes"/>
      <point x="172" y="433"/>
      <point x="213" y="458"/>
      <point x="310" y="458" type="curve" smooth="yes"/>
      <point x="411" y="458"/>
      <point x="424" y="407"/>
      <point x="424" y="221" type="curve" smooth="yes"/>
      <point x="424" y="119"/>
      <point x="403" y="82"/>
      <point x="286" y="82" type="curve" smooth="yes"/>
      <point x="186" y="82"/>
      <point x="172" y="133"/>
    </contour>
  </outline>
</glyph>
<glyph name="p" format="1">
  <advance width="647"/>
  <unicode hex="0070"/>
  <outline>
    <contour>
      <point x="374" y="-12" type="curve" smooth="yes"/>
      <point x="265" y="-12"/>
      <point x="200" y="55"/>
      <point x="198" y="143" type="curve"/>
      <point x="193" y="183" type="line"/>
      <point x="226" y="120"/>
      <point x="268" y="90"/>
      <point x="347" y="90" type="curve" smooth="yes"/>
      <point x="419" y="90"/>
      <point x="481" y="124"/>
      <point x="481" y="279" type="curve" smooth="yes"/>
      <point x="481" y="389"/>
      <point x="440" y="429"/>
      <point x="365" y="429" type="curve" smooth="yes"/>
      <point x="301" y="429"/>
      <point x="256" y="416"/>
      <point x="186" y="375" type="curve"/>
      <point x="210" y="465" type="line"/>
      <point x="281" y="463" type="line"/>
      <point x="252" y="427" type="line"/>
      <point x="252" y="519"/>
      <point x="322" y="555"/>
      <point x="409" y="555" type="curve" smooth="yes"/>
      <point x="527" y="555"/>
      <point x="595" y="479"/>
      <point x="595" y="278" type="curve" smooth="yes"/>
      <point x="595" y="16"/>
      <point x="488" y="-12"/>
    </contour>
    <contour>
      <point x="37" y="-210" type="line"/>
      <point x="37" y="-127" type="line"/>
      <point x="142" y="-107" type="line"/>
      <point x="112" y="-137" type="line"/>
      <point x="112" y="427" type="line"/>
      <point x="52" y="427" type="line"/>
      <point x="52" y="540" type="line"/>
      <point x="224" y="540" type="line"/>
      <point x="224" y="-132" type="line"/>
      <point x="191" y="-95" type="line"/>
      <point x="368" y="-138" type="line"/>
      <point x="368" y="-210" type="line"/>
    </contour>
  </outline>
</glyph>
<glyph name="q" format="1">
  <advance width="620"/>
  <unicode hex="0071"/>
  <outline>
    <contour>
      <point x="236" y="-11" type="curve" smooth="yes"/>
      <point x="133" y="-11"/>
      <point x="44" y="36"/>
      <point x="44" y="284" type="curve"/>
      <point x="44" y="508"/>
      <point x="139" y="554"/>
      <point x="265" y="554" type="curve" smooth="yes"/>
      <point x="376" y="554"/>
      <point x="460" y="465"/>
      <point x="471" y="393" type="curve"/>
      <point x="435" y="379" type="line"/>
      <point x="421" y="430"/>
      <point x="343" y="454"/>
      <point x="286" y="454" type="curve" smooth="yes"/>
      <point x="213" y="454"/>
      <point x="158" y="424"/>
      <point x="158" y="312" type="curve" smooth="yes"/>
      <point x="158" y="137"/>
      <point x="198" y="101"/>
      <point x="286" y="101" type="curve" smooth="yes"/>
      <point x="366" y="101"/>
      <point x="440" y="153"/>
      <point x="473" y="218" type="curve"/>
      <point x="456" y="71" type="line"/>
      <point x="310" y="71" type="line"/>
      <point x="391" y="113" type="line"/>
      <point x="391" y="31"/>
      <point x="342" y="-11"/>
    </contour>
    <contour>
      <point x="278" y="-210" type="line"/>
      <point x="278" y="-138" type="line"/>
      <point x="449" y="-96" type="line"/>
      <point x="421" y="-130" type="line"/>
      <point x="421" y="464" type="line"/>
      <point x="433" y="471" type="line"/>
      <point x="455" y="558" type="line"/>
      <point x="534" y="558" type="line"/>
      <point x="534" y="-132" type="line"/>
      <point x="504" y="-107" type="line"/>
      <point x="609" y="-127" type="line"/>
      <point x="609" y="-210" type="line"/>
    </contour>
  </outline>
</glyph>
<glyph name="r" format="1">
  <advance width="492"/>
  <unicode hex="0072"/>
  <outline>
    <contour>
      <point x="379" y="-1" type="line"/>
      <point x="379" y="81" type="line"/>
      <point x="193" y="113" type="line"/>
      <point x="240" y="80" type="line"/>
      <point x="240" y="539" type="line"/>
      <point x="53" y="539" type="line"/>
      <point x="53" y="427" type="line"/>
      <point x="165" y="427" type="line"/>
      <point x="132" y="456" type="line"/>
      <point x="132" y="87" type="line"/>
      <point x="162" y="108" type="line"/>
      <point x="53" y="80" type="line"/>
      <point x="53" y="-1" type="line"/>
    </contour>
    <contour>
      <point x="480" y="332" type="line"/>
      <point x="505" y="500"/>
      <point x="481" y="555"/>
      <point x="387" y="555" type="curve" smooth="yes"/>
      <point x="313" y="555"/>
      <point x="273" y="520"/>
      <point x="271" y="421" type="curve"/>
      <point x="303" y="453" type="line"/>
      <point x="223" y="453" type="line"/>
      <point x="214" y="373" type="line"/>
      <point x="245" y="404"/>
      <point x="277" y="416"/>
      <point x="315" y="416" type="curve" smooth="yes"/>
      <point x="377" y="416"/>
      <point x="383" y="389"/>
      <point x="389" y="331" type="curve"/>
    </contour>
  </outline>
</glyph>
<glyph name="u" format="1">
  <advance width="646"/>
  <unicode hex="0075"/>
  <outline>
    <contour>
      <point x="9" y="460" type="line"/>
      <point x="131" y="405" type="line"/>
      <point x="73" y="463" type="line"/>
      <point x="73" y="171" type="line"/>
      <point x="73" y="31"/>
      <point x="127" y="-15"/>
      <point x="238" y="-15" type="curve" smooth="yes"/>
      <point x="335" y="-15"/>
      <point x="383" y="28"/>
      <point x="389" y="126" type="curve"/>
      <point x="354" y="90" type="line"/>
      <point x="434" y="84" type="line"/>
      <point x="436" y="188" type="line"/>
      <point x="409" y="135"/>
      <point x="344" y="117"/>
      <point x="288" y="117" type="curve" smooth="yes"/>
      <point x="210" y="117"/>
      <point x="183" y="140"/>
      <point x="183" y="177" type="curve" smooth="yes"/>
      <point x="183" y="540" type="line"/>
      <point x="9" y="541" type="line"/>
    </contour>
    <contour>
      <point x="349" y="541" type="line"/>
      <point x="349" y="460" type="line"/>
      <point x="444" y="416" type="line"/>
      <point x="416" y="460" type="line"/>
      <point x="416" y="1" type="line"/>
      <point x="586" y="1" type="line"/>
      <point x="586" y="80" type="line"/>
      <point x="474" y="123" type="line"/>
      <point x="526" y="84" type="line"/>
      <point x="526" y="541" type="line"/>
    </contour>
  </outline>
</glyph>
<glyph name="Ntilde" format="1">
  <advance width="784"/>
  <unicode hex="00D1"/>
  <outline>
    <contour>
      <point x="282" y="832" type="curve"/>
      <point x="215" y="836" type="line"/>
      <point x="215" y="954"/>
      <point x="235" y="1012"/>
      <point x="340" y="1012" type="curve" smooth="yes"/>
      <point x="403" y="1012"/>
      <point x="429" y="1000"/>
      <point x="451" y="968" type="curve"/>
      <point x="457" y="959"/>
      <point x="463" y="953"/>
      <point x="474" y="953" type="curve" smooth="yes"/>
      <point x="499" y="937"/>
      <point x="516" y="936"/>
      <point x="541" y="945" type="curve"/>
      <point x="573" y="945"/>
      <point x="587" y="962"/>
      <point x="587" y="1010" type="curve"/>
      <point x="655" y="1008" type="line"/>
      <point x="655" y="886"/>
      <point x="634" y="824"/>
      <point x="529" y="824" type="curve" smooth="yes"/>
      <point x="467" y="824"/>
      <point x="443" y="839"/>
      <point x="421" y="871" type="curve"/>
      <point x="414" y="881"/>
      <point x="408" y="886"/>
      <point x="396" y="886" type="curve" smooth="yes"/>
      <point x="372" y="902"/>
      <point x="354" y="901"/>
      <point x="330" y="892" type="curve"/>
      <point x="296" y="892"/>
      <point x="282" y="878"/>
    </contour>
    <component base="N" xOffset="9"/>
  </outline>
</glyph>
<glyph name="ntilde" format="1">
  <advance width="656"/>
  <unicode hex="00F1"/>
  <outline>
    <contour>
      <point x="431" y="628" type="curve" smooth="yes"/>
      <point x="374" y="628"/>
      <point x="354" y="642"/>
      <point x="334" y="670" type="curve"/>
      <point x="331" y="675"/>
      <point x="325" y="682"/>
      <point x="318" y="682" type="curve" smooth="yes"/>
      <point x="299" y="696"/>
      <point x="283" y="699"/>
      <point x="259" y="693" type="curve"/>
      <point x="226" y="693"/>
      <point x="214" y="679"/>
      <point x="214" y="635" type="curve"/>
      <point x="149" y="638" type="line"/>
      <point x="149" y="748"/>
      <point x="169" y="798"/>
      <point x="263" y="798" type="curve" smooth="yes"/>
      <point x="320" y="798"/>
      <point x="343" y="786"/>
      <point x="361" y="758" type="curve"/>
      <point x="365" y="753"/>
      <point x="370" y="747"/>
      <point x="377" y="747" type="curve" smooth="yes"/>
      <point x="396" y="731"/>
      <point x="412" y="728"/>
      <point x="436" y="734" type="curve"/>
      <point x="468" y="734"/>
      <point x="480" y="750"/>
      <point x="480" y="796" type="curve"/>
      <point x="545" y="795" type="line"/>
      <point x="545" y="681"/>
      <point x="524" y="628"/>
    </contour>
    <component base="n" xOffset="30"/>
  </outline>
</glyph>
<glyph name="r.alt" format="1">
  <advance width="558"/>
  <outline>
    <contour>
      <point x="373" y="63" type="line"/>
      <point x="223" y="104" type="line"/>
      <point x="223" y="540" type="line"/>
      <point x="54" y="540" type="line"/>
      <point x="54" y="427" type="line"/>
      <point x="114" y="427" type="line"/>
      <point x="114" y="88" type="line"/>
      <point x="54" y="88" type="line"/>
      <point x="54" y="0" type="line"/>
      <point x="373" y="0" type="line"/>
    </contour>
    <contour>
      <point x="223" y="420" type="line"/>
      <point x="223" y="272" type="line"/>
      <point x="223" y="345"/>
      <point x="265" y="403"/>
      <point x="338" y="403" type="curve"/>
      <point x="401" y="403"/>
      <point x="456" y="361"/>
      <point x="456" y="361" type="curve"/>
      <point x="525" y="485" type="line"/>
      <point x="525" y="485"/>
      <point x="454" y="558"/>
      <point x="354" y="558" type="curve" smooth="yes"/>
      <point x="253" y="558"/>
      <point x="252" y="420"/>
      <point x="252" y="420" type="curve"/>
    </contour>
  </outline>
</glyph>
